<?xml version="1.0" encoding="UTF-8"?>
<svg xmlns="http://www.w3.org/2000/svg" viewBox="0 0 440 340" fill="none">
  <defs>
    <linearGradient id="lm-hub" x1="0%" y1="0%" x2="100%" y2="100%">
      <stop offset="0%" stop-color="#f26a3d"/>
      <stop offset="100%" stop-color="#e85a2e"/>
    </linearGradient>
  </defs>
  <rect width="440" height="340" rx="24" fill="#fcfbf8" stroke="#eae7df" stroke-width="1"/>

  <!-- faint map curves -->
  <g opacity="0.4" stroke="#d6d3c9" stroke-width="1" fill="none">
    <path d="M40 200 Q120 140 220 180 T400 160"/>
    <path d="M60 260 Q180 220 300 240 T420 220"/>
    <path d="M80 100 Q200 140 320 90"/>
  </g>

  <!-- hub -->
  <circle cx="220" cy="170" r="56" fill="#ffffff" stroke="#eae7df" stroke-width="1"/>
  <circle cx="220" cy="170" r="42" fill="url(#lm-hub)"/>
  <g fill="#ffffff">
    <rect x="196" y="146" width="14" height="14" rx="2"/>
    <rect x="216" y="146" width="14" height="14" rx="2"/>
    <rect x="196" y="166" width="14" height="14" rx="2"/>
    <rect x="210" y="162" width="10" height="10" rx="2"/>
    <rect x="226" y="166" width="8" height="8" rx="1"/>
    <rect x="210" y="178" width="8" height="8" rx="1"/>
    <rect x="226" y="178" width="14" height="14" rx="2"/>
  </g>

  <!-- nodes -->
  <line x1="220" y1="170" x2="95" y2="95" stroke="#e5e2da" stroke-width="1.2"/>
  <line x1="220" y1="170" x2="345" y2="95" stroke="#e5e2da" stroke-width="1.2"/>
  <line x1="220" y1="170" x2="360" y2="230" stroke="#e5e2da" stroke-width="1.2"/>
  <line x1="220" y1="170" x2="85" y2="245" stroke="#e5e2da" stroke-width="1.2"/>

  <circle cx="95" cy="95" r="22" fill="#fff" stroke="#eae7df"/>
  <path d="M88 102h14v10h-14z M91 98v4" stroke="#89a792" stroke-width="1.6" fill="none"/>

  <circle cx="345" cy="95" r="22" fill="#fff" stroke="#eae7df"/>
  <path d="M338 92h14v18h-14z M341 88v6" stroke="#6b7280" stroke-width="1.5" fill="none"/>

  <circle cx="360" cy="230" r="22" fill="#fff" stroke="#eae7df"/>
  <path d="M354 226l6 10 10-16" stroke="#f26a3d" stroke-width="2" fill="none"/>

  <circle cx="85" cy="245" r="22" fill="#fff" stroke="#eae7df"/>
  <path d="M85 238v14 M77 245h16" stroke="#d6a061" stroke-width="2" stroke-linecap="round"/>

  <circle cx="310" cy="275" r="18" fill="#fff" stroke="#eae7df"/>
  <path d="M306 277l4 6 6-10 6 10 4-6" stroke="#89a792" stroke-width="1.5" fill="none" stroke-linecap="round"/>

  <line x1="220" y1="170" x2="310" y2="275" stroke="#e5e2da" stroke-width="1"/>
</svg>
