<?xml version="1.0" encoding="UTF-8"?>
<svg xmlns="http://www.w3.org/2000/svg" viewBox="0 0 64 64">
  <defs>
    <linearGradient id="g" x1="0%" y1="0%" x2="100%" y2="100%">
      <stop offset="0%" stop-color="#ff8a4c"/>
      <stop offset="100%" stop-color="#ff6b35"/>
    </linearGradient>
  </defs>
  <rect x="2" y="2" width="60" height="60" rx="14" fill="url(#g)"/>
  <!-- Çekirdex "Ç" letter mark, with seed/leaf accent -->
  <path d="M42 22.5c-2.6-2.5-6.4-4.1-10.5-4.1-8.3 0-14.5 6.5-14.5 14.6S23.2 47.6 31.5 47.6c4.1 0 7.9-1.6 10.5-4.1l-3.7-3.6c-1.7 1.5-4 2.4-6.5 2.4-5.3 0-9.4-4.1-9.4-9.3s4.1-9.3 9.4-9.3c2.5 0 4.8.9 6.5 2.4z" fill="#fff"/>
  <circle cx="32" cy="50.5" r="2" fill="#fff"/>
  <path d="M48 14c1.5 1 2.5 2.5 2.5 4.5 0 1-.3 1.9-.7 2.6-2.5-.4-4.4-1.8-5-3.7-.4-1.5.4-2.8 1.4-3.4z" fill="#ffd9c2" opacity=".85"/>
</svg>
